# xmcd
#
# Track frame offsets:
#	207
#	10162
#	31495
#	47427
#	77375
#	91905
#	114090
#	134800
#	143757
#	150860
#	166972
#	182350
#	197980
#	211075
#	225940
#	242670
#
# Disc length: 3366 seconds
#
# Revision: 0
# Processed by: cddbd v1.4PL0 Copyright (c) Steve Scherf et al.
# Submitted via: dBpowerAMP V4.0
#
DISCID=b50d2410
DTITLE=Memphis Slim - Live at Ronnnie Scott's
DYEAR=1900
DGENRE=
TTITLE0=Health Shaking
TTITLE1=Mother Earth
TTITLE2=Rock This House Tonight
TTITLE3=If You See Kay
TTITLE4=Feel So Good
TTITLE5=Tribute to Gaillard
TTITLE6=Four Hundred Years
TTITLE7=Steppin' Out
TTITLE8=Baby Please Come Home
TTITLE9=Where Do I Go From Here
TTITLE10=Didn't We
TTITLE11=Christina
TTITLE12=Animal
TTITLE13=Beer Drinking Woman
TTITLE14=What is This World Coming To?
TTITLE15=Bye Bye Blues
EXTD=
EXTT0=
EXTT1=
EXTT2=
EXTT3=
EXTT4=
EXTT5=
EXTT6=
EXTT7=
EXTT8=
EXTT9=
EXTT10=
EXTT11=
EXTT12=
EXTT13=
EXTT14=
EXTT15=
PLAYORDER=
